<!-- path标签练习：car -->
<svg xmlns="http://www.w3.org/2000/svg"
    width="440px" height="180px"
    viewBox="0 0 100 100">

    <!-- bezier curve -->
    <g>
        <path d="M155 68
                C145 40,120,38 89 36
                L75 16
                C-19 -4,-40 53 -51 68
                L-58 68
                L-58 77
                L-41 77
                C-41 102,-4 102 -4 77
                L96 77
                C96 102,134 102 134 77
                L160 77
                L160 68
                L152 68"
                fill="transparent" stroke="tomato" stroke-width="4"/>
    </g>

    <!-- points -->
    <!-- <g>
        <circle cx="153" cy="68" r="2" fill="green"/>
        <circle cx="89" cy="36" r="2" fill="green"/>
        <circle cx="75" cy="16" r="2" fill="green"/>
        <circle cx="-51" cy="68" r="2" fill="green"/>
        <circle cx="-58" cy="68" r="2" fill="green"/>
        <circle cx="-58" cy="77" r="2" fill="green"/>
        <circle cx="-41" cy="77" r="2" fill="green"/>
        <circle cx="-4" cy="77" r="2" fill="green"/>
        <circle cx="96" cy="77" r="2" fill="green"/>
        <circle cx="134" cy="77" r="2" fill="green"/>
        <circle cx="160" cy="77" r="2" fill="green"/>
        <circle cx="160" cy="68" r="2" fill="green"/>
    </g> -->
</svg>  