<!-- path标签练习：html5 -->
<svg xmlns="http://www.w3.org/2000/svg"
    width="100px" height="100px" viewBox="0 0 100 100">

    <g>
        <path d="M22 15
                C22 15.3,19 14 19.8 18
                L24.5 77
                C24.8 78,24 79 26 79.5
                L51.4 87.5
                L77 79.5
                C78 79,78.5 79 78.5 77
                L83.2 18
                C83.2 17.5,84 15.5 81 15
                L21 15"
                fill="tomato" stroke="tomato" stroke-width="0.7"/>

        <path d="M31 28
                L33 52.5
                L62 52.5
                L61 62
                L51.5 65
                L42.5 62
                L42.5 56
                L33.5 56
                L34.5 69
                L51.5 74
                L68.5 69
                L70.5 44.5
                L41.5 44.5
                L40.5 36
                L71 36
                L71.7 28
                L30.65 28"
                fill="transparent" stroke="green" stroke-width="0.7"/>
        
    </g>

    <!-- points -->
    <!-- <g>
        <circle cx="22" cy="15" r="0.3" fill="green" />
        <circle cx="19.8" cy="18" r="0.3" fill="green" />
        <circle cx="24.5" cy="77" r="0.3" fill="green" />
        <circle cx="26" cy="79.5" r="0.3" fill="green" />

        <circle cx="51.4" cy="87.5" r="0.3" fill="green" />

        <circle cx="81" cy="15" r="0.3" fill="green" />
        <circle cx="83.2" cy="18" r="0.3" fill="green" />
        <circle cx="78.5" cy="77" r="0.3" fill="green" />
        <circle cx="77" cy="79.5" r="0.3" fill="green" />
    </g> -->
            <!-- 内层 -->
    <!-- <g>
        <circle cx="31" cy="28" r="0.3" fill="green" />
        <circle cx="33" cy="52.5" r="0.3" fill="green" />
        <circle cx="62" cy="52.5" r="0.3" fill="green" />
        <circle cx="61" cy="62" r="0.3" fill="green" />
        <circle cx="51.5" cy="65" r="0.3" fill="green" />
        <circle cx="42.5" cy="62" r="0.3" fill="green" />
        <circle cx="42.5" cy="56" r="0.3" fill="green" />
        <circle cx="33.5" cy="56" r="0.3" fill="green" />
        <circle cx="34.5" cy="69" r="0.3" fill="green" />
        <circle cx="51.5" cy="74" r="0.3" fill="green" />
        <circle cx="68.5" cy="69" r="0.3" fill="green" />
        <circle cx="70.5" cy="44.5" r="0.3" fill="green" />
        <circle cx="41.5" cy="44.5" r="0.3" fill="green" />
        <circle cx="40.5" cy="36" r="0.3" fill="green" />
        <circle cx="71" cy="36" r="0.3" fill="green" />
        <circle cx="71.7" cy="28" r="0.3" fill="green" />
    </g> -->

</svg>